<svg width="20" height="20" viewBox="0 0 20 20" fill="none" xmlns="http://www.w3.org/2000/svg">
<path fill-rule="evenodd" clip-rule="evenodd" d="M1.25 10C1.25 5.16797 5.16797 1.25 10 1.25C14.832 1.25 18.75 5.16797 18.75 10C18.75 14.832 14.832 18.75 10 18.75C5.16797 18.75 1.25 14.832 1.25 10ZM13.5412 6.60068C13.6978 6.44408 13.9518 6.44453 14.1078 6.60168L14.7192 7.21733C14.8744 7.3737 14.874 7.62619 14.7182 7.78201L8.61618 13.884C8.45997 14.0402 8.2067 14.0402 8.05049 13.884L5.28284 11.1163C5.12663 10.9601 5.12663 10.7069 5.28284 10.5507L5.8927 9.9408C6.0487 9.7848 6.30154 9.78456 6.45784 9.94025L8.33333 11.8085L13.5412 6.60068Z" fill="#1A1A1A"/>
</svg>
